<svg width="76" height="26" viewBox="0 0 76 26" fill="none" xmlns="http://www.w3.org/2000/svg" class="text-neutral-900 dark:text-neutral-50"><path d="M0.55249 20.385V0.25415H10.5886C12.0167 0.25415 13.2003 0.518258 14.1393 1.04647C15.0784 1.57469 15.7827 2.30832 16.2522 3.24737C16.7413 4.16685 16.9858 5.26241 16.9858 6.53403C16.9858 7.80566 16.7315 8.93056 16.2229 9.90874C15.7142 10.8673 14.9708 11.6108 13.9926 12.139C13.034 12.6672 11.8602 12.9313 10.4712 12.9313H3.83916V20.385H0.55249ZM3.83916 10.1142H10.3245C11.3613 10.1142 12.1732 9.80114 12.7601 9.17511C13.3666 8.54908 13.6698 7.6785 13.6698 6.56338C13.6698 5.81997 13.5427 5.19393 13.2883 4.68528C13.034 4.15707 12.6623 3.75602 12.1732 3.48213C11.6841 3.20824 11.0679 3.07129 10.3245 3.07129H3.83916V10.1142Z" fill="url(#paint0_linear_763_609)"></path><path d="M0.55249 20.385V0.25415H10.5886C12.0167 0.25415 13.2003 0.518258 14.1393 1.04647C15.0784 1.57469 15.7827 2.30832 16.2522 3.24737C16.7413 4.16685 16.9858 5.26241 16.9858 6.53403C16.9858 7.80566 16.7315 8.93056 16.2229 9.90874C15.7142 10.8673 14.9708 11.6108 13.9926 12.139C13.034 12.6672 11.8602 12.9313 10.4712 12.9313H3.83916V20.385H0.55249ZM3.83916 10.1142H10.3245C11.3613 10.1142 12.1732 9.80114 12.7601 9.17511C13.3666 8.54908 13.6698 7.6785 13.6698 6.56338C13.6698 5.81997 13.5427 5.19393 13.2883 4.68528C13.034 4.15707 12.6623 3.75602 12.1732 3.48213C11.6841 3.20824 11.0679 3.07129 10.3245 3.07129H3.83916V10.1142Z" fill="#EE2A77"></path><path d="M24.8277 20.7371C23.2235 20.7371 21.8638 20.4535 20.7487 19.8861C19.6531 19.2992 18.8217 18.4091 18.2543 17.2157C17.7065 16.0223 17.4327 14.5062 17.4327 12.6672C17.4327 10.8087 17.7065 9.29249 18.2543 8.11868C18.8217 6.9253 19.6531 6.04495 20.7487 5.47761C21.8638 4.8907 23.2235 4.59725 24.8277 4.59725C26.471 4.59725 27.8404 4.8907 28.936 5.47761C30.0316 6.04495 30.8532 6.9253 31.401 8.11868C31.9683 9.29249 32.252 10.8087 32.252 12.6672C32.252 14.5062 31.9683 16.0223 31.401 17.2157C30.8532 18.4091 30.0316 19.2992 28.936 19.8861C27.8404 20.4535 26.471 20.7371 24.8277 20.7371ZM24.8277 18.2134C25.8058 18.2134 26.6079 18.0276 27.234 17.6559C27.86 17.2646 28.3197 16.6777 28.6132 15.8952C28.9262 15.1126 29.0827 14.1247 29.0827 12.9313V12.4031C29.0827 11.2097 28.9262 10.2218 28.6132 9.43921C28.3197 8.65668 27.86 8.07955 27.234 7.70785C26.6079 7.31658 25.8058 7.12094 24.8277 7.12094C23.869 7.12094 23.0767 7.31658 22.4507 7.70785C21.8247 8.07955 21.3551 8.65668 21.0421 9.43921C20.7487 10.2218 20.6019 11.2097 20.6019 12.4031V12.9313C20.6019 14.1247 20.7487 15.1126 21.0421 15.8952C21.3551 16.6777 21.8247 17.2646 22.4507 17.6559C23.0767 18.0276 23.869 18.2134 24.8277 18.2134Z" fill="url(#paint1_linear_763_609)"></path><path d="M24.8277 20.7371C23.2235 20.7371 21.8638 20.4535 20.7487 19.8861C19.6531 19.2992 18.8217 18.4091 18.2543 17.2157C17.7065 16.0223 17.4327 14.5062 17.4327 12.6672C17.4327 10.8087 17.7065 9.29249 18.2543 8.11868C18.8217 6.9253 19.6531 6.04495 20.7487 5.47761C21.8638 4.8907 23.2235 4.59725 24.8277 4.59725C26.471 4.59725 27.8404 4.8907 28.936 5.47761C30.0316 6.04495 30.8532 6.9253 31.401 8.11868C31.9683 9.29249 32.252 10.8087 32.252 12.6672C32.252 14.5062 31.9683 16.0223 31.401 17.2157C30.8532 18.4091 30.0316 19.2992 28.936 19.8861C27.8404 20.4535 26.471 20.7371 24.8277 20.7371ZM24.8277 18.2134C25.8058 18.2134 26.6079 18.0276 27.234 17.6559C27.86 17.2646 28.3197 16.6777 28.6132 15.8952C28.9262 15.1126 29.0827 14.1247 29.0827 12.9313V12.4031C29.0827 11.2097 28.9262 10.2218 28.6132 9.43921C28.3197 8.65668 27.86 8.07955 27.234 7.70785C26.6079 7.31658 25.8058 7.12094 24.8277 7.12094C23.869 7.12094 23.0767 7.31658 22.4507 7.70785C21.8247 8.07955 21.3551 8.65668 21.0421 9.43921C20.7487 10.2218 20.6019 11.2097 20.6019 12.4031V12.9313C20.6019 14.1247 20.7487 15.1126 21.0421 15.8952C21.3551 16.6777 21.8247 17.2646 22.4507 17.6559C23.0767 18.0276 23.869 18.2134 24.8277 18.2134Z" fill="#EE2A77"></path><path d="M34.189 25.4617V4.94939H36.6834L36.9475 7.06225H37.1529C37.6811 6.24058 38.3561 5.62433 39.1777 5.2135C39.9994 4.80266 40.9189 4.59725 41.9362 4.59725C43.2078 4.59725 44.2936 4.88092 45.1935 5.44826C46.113 6.0156 46.8173 6.89596 47.3064 8.08933C47.7954 9.28271 48.04 10.8282 48.04 12.7259C48.04 14.5649 47.7857 16.081 47.277 17.2744C46.7879 18.4482 46.0934 19.3188 45.1935 19.8861C44.2936 20.4535 43.2567 20.7371 42.0829 20.7371C41.3982 20.7371 40.7624 20.6589 40.1755 20.5024C39.5886 20.3459 39.0603 20.1013 38.5908 19.7687C38.1409 19.4362 37.7496 19.0155 37.417 18.5069H37.2409V25.4617H34.189ZM41.0265 18.0961C41.946 18.0961 42.6894 17.92 43.2567 17.5678C43.824 17.1961 44.2349 16.6288 44.4892 15.8658C44.7631 15.1028 44.9 14.1345 44.9 12.9606V12.4324C44.9 11.1999 44.7631 10.2022 44.4892 9.43921C44.2153 8.67624 43.7947 8.11868 43.2274 7.76654C42.6796 7.41439 41.9655 7.23832 41.0852 7.23832C40.1852 7.23832 39.4516 7.44374 38.8843 7.85457C38.3169 8.24584 37.8963 8.83275 37.6224 9.61529C37.3681 10.3978 37.2409 11.3467 37.2409 12.4618V12.8726C37.2409 13.7921 37.329 14.5844 37.505 15.2496C37.6811 15.9147 37.9354 16.4625 38.268 16.8929C38.6006 17.3037 39.0016 17.607 39.4712 17.8026C39.9407 17.9982 40.4591 18.0961 41.0265 18.0961Z" fill="url(#paint2_linear_763_609)"></path><path d="M34.189 25.4617V4.94939H36.6834L36.9475 7.06225H37.1529C37.6811 6.24058 38.3561 5.62433 39.1777 5.2135C39.9994 4.80266 40.9189 4.59725 41.9362 4.59725C43.2078 4.59725 44.2936 4.88092 45.1935 5.44826C46.113 6.0156 46.8173 6.89596 47.3064 8.08933C47.7954 9.28271 48.04 10.8282 48.04 12.7259C48.04 14.5649 47.7857 16.081 47.277 17.2744C46.7879 18.4482 46.0934 19.3188 45.1935 19.8861C44.2936 20.4535 43.2567 20.7371 42.0829 20.7371C41.3982 20.7371 40.7624 20.6589 40.1755 20.5024C39.5886 20.3459 39.0603 20.1013 38.5908 19.7687C38.1409 19.4362 37.7496 19.0155 37.417 18.5069H37.2409V25.4617H34.189ZM41.0265 18.0961C41.946 18.0961 42.6894 17.92 43.2567 17.5678C43.824 17.1961 44.2349 16.6288 44.4892 15.8658C44.7631 15.1028 44.9 14.1345 44.9 12.9606V12.4324C44.9 11.1999 44.7631 10.2022 44.4892 9.43921C44.2153 8.67624 43.7947 8.11868 43.2274 7.76654C42.6796 7.41439 41.9655 7.23832 41.0852 7.23832C40.1852 7.23832 39.4516 7.44374 38.8843 7.85457C38.3169 8.24584 37.8963 8.83275 37.6224 9.61529C37.3681 10.3978 37.2409 11.3467 37.2409 12.4618V12.8726C37.2409 13.7921 37.329 14.5844 37.505 15.2496C37.6811 15.9147 37.9354 16.4625 38.268 16.8929C38.6006 17.3037 39.0016 17.607 39.4712 17.8026C39.9407 17.9982 40.4591 18.0961 41.0265 18.0961Z" fill="#EE2A77"></path><path d="M57.9677 0.595121C58.2777 0.508297 58.6497 0.421473 58.7943 0.399767C58.939 0.367208 59.2593 0.334649 59.5176 0.334649C59.776 0.323796 60.2823 0.367208 60.6543 0.432326C61.0263 0.497444 61.5326 0.638534 61.7909 0.757917C62.0492 0.8773 62.4315 1.15948 62.6485 1.37654C62.8655 1.5936 63.1549 1.99516 63.2892 2.26649C63.4132 2.53781 64.4568 5.33789 65.6038 8.50698C66.7404 11.6652 68.187 15.6483 68.807 17.3522C69.4166 19.0561 69.9126 20.4779 69.8919 20.5213C69.8713 20.5755 69.0653 20.6081 68.094 20.6081C66.5234 20.6081 66.3271 20.5864 66.2444 20.4127C66.1927 20.3151 64.8908 16.6902 63.3408 12.3598C61.0469 5.93481 60.4786 4.43709 60.2306 4.18747C60.0653 4.02468 59.8173 3.89444 59.6726 3.89444C59.528 3.89444 59.311 3.94871 59.187 4.00297C59.0527 4.06809 58.8873 4.23089 58.8047 4.36112C58.722 4.49136 58.1434 5.98908 57.5027 7.693C56.8621 9.39693 55.5395 12.935 54.5578 15.5614C53.5762 18.1879 52.7186 20.4019 52.6566 20.4779C52.5739 20.5864 52.1089 20.619 50.8173 20.6081C49.8563 20.6081 49.0813 20.5755 49.0813 20.5213C49.0813 20.4788 49.2692 19.9586 49.4902 19.3468L49.505 19.3057C49.7427 18.6763 50.5073 16.625 51.2203 14.7475C51.9229 12.8699 53.2662 9.29925 54.1962 6.82476C55.1571 4.28515 56.0251 2.11454 56.2111 1.85407C56.3764 1.60445 56.7174 1.2463 56.9551 1.07265C57.2031 0.888153 57.6577 0.671093 57.9677 0.595121Z" fill="currentColor"></path><path d="M72.2789 20.5538L72.2479 10.428L72.2272 0.312943H75.5338V20.6081L72.2789 20.5538Z" fill="currentColor"></path><defs><linearGradient id="paint0_linear_763_609" x1="33.7495" y1="25.4617" x2="53.8932" y2="22.4988" gradientUnits="userSpaceOnUse"><stop stop-color="#1B1B1B"></stop><stop offset="1" stop-color="#787878"></stop></linearGradient><linearGradient id="paint1_linear_763_609" x1="33.7495" y1="25.4617" x2="53.8932" y2="22.4988" gradientUnits="userSpaceOnUse"><stop stop-color="#1B1B1B"></stop><stop offset="1" stop-color="#787878"></stop></linearGradient><linearGradient id="paint2_linear_763_609" x1="33.7495" y1="25.4617" x2="53.8932" y2="22.4988" gradientUnits="userSpaceOnUse"><stop stop-color="#1B1B1B"></stop><stop offset="1" stop-color="#787878"></stop></linearGradient></defs></svg>